<svg width="226" height="93" viewBox="0 0 226 93" fill="none" xmlns="http://www.w3.org/2000/svg">
<g filter="url(#filter0_d)">
<path d="M41.6847 27.1721C47.9632 27.1721 52.6353 29.1066 55.7015 32.9759C58.7677 36.772 60.3008 42.5759 60.3008 50.3874V74.0409C60.3008 76.8151 59.4247 79.0053 57.6726 80.6112C55.9205 82.2172 53.548 83.0204 50.5547 83.0204C47.5614 83.0204 45.1889 82.2172 43.4368 80.6112C41.6847 79.0053 40.8086 76.8151 40.8086 74.0409V49.9494C40.8086 44.6931 38.5456 42.0649 34.0192 42.0649C31.0991 42.0649 28.7629 43.0139 27.0108 44.9121C25.3317 46.7371 24.4922 49.2195 24.4922 52.3586V74.0409C24.4922 76.8151 23.6161 79.0053 21.864 80.6112C20.1119 82.2172 17.7393 83.0204 14.7461 83.0204C11.7529 83.0204 9.38026 82.2172 7.62816 80.6112C5.87605 79.0053 5 76.8151 5 74.0409V13.3742C5 10.819 5.91257 8.73835 7.73766 7.13236C9.56276 5.45315 11.9719 4.61371 14.9651 4.61371C17.8123 4.61371 20.1119 5.38026 21.864 6.91335C23.6161 8.44644 24.4922 10.4905 24.4922 13.0457V34.947C26.4633 32.3918 28.9089 30.4573 31.8291 29.1432C34.7492 27.8291 38.0344 27.1721 41.6847 27.1721ZM81.0489 83.0204C78.2746 83.0204 75.9387 82.2905 74.0404 80.8303C72.2155 79.2972 71.3028 77.0341 71.3028 74.0409V36.3706C71.3028 33.3773 72.2155 31.1509 74.0404 29.6907C75.9387 28.1576 78.2746 27.3911 81.0489 27.3911C83.8231 27.3911 86.1228 28.1576 87.9478 29.6907C89.846 31.1509 90.7949 33.3773 90.7949 36.3706V74.0409C90.7949 77.0341 89.846 79.2972 87.9478 80.8303C86.1228 82.2905 83.8231 83.0204 81.0489 83.0204ZM81.0489 19.7256C77.7637 19.7256 75.1355 18.8862 73.1644 17.207C71.2662 15.4549 70.3172 13.1552 70.3172 10.3081C70.3172 7.46089 71.2662 5.19786 73.1644 3.51865C75.1355 1.83954 77.7637 1 81.0489 1C84.2612 1 86.8527 1.83954 88.8238 3.51865C90.7949 5.19786 91.7805 7.46089 91.7805 10.3081C91.7805 13.1552 90.7949 15.4549 88.8238 17.207C86.9256 18.8862 84.3341 19.7256 81.0489 19.7256ZM137.801 27.1721C142.473 27.1721 146.598 28.3037 150.175 30.5668C153.752 32.8298 156.526 36.0787 158.497 40.3128C160.541 44.4741 161.564 49.329 161.564 54.8772C161.564 60.4254 160.541 65.3532 158.497 69.6606C156.526 73.968 153.716 77.326 150.065 79.7352C146.488 82.0714 142.4 83.2394 137.801 83.2394C134.224 83.2394 130.938 82.5095 127.945 81.0493C125.025 79.5891 122.798 77.5817 121.265 75.0264C121.046 77.5084 120.061 79.4796 118.308 80.9398C116.629 82.3267 114.403 83.0204 111.629 83.0204C108.709 83.0204 106.372 82.2172 104.62 80.6112C102.941 78.932 102.101 76.7419 102.101 74.0409V13.3742C102.101 10.819 103.014 8.73835 104.839 7.13236C106.664 5.45315 109.073 4.61371 112.067 4.61371C114.914 4.61371 117.213 5.38026 118.965 6.91335C120.718 8.44644 121.594 10.4905 121.594 13.0457V34.8375C123.2 32.5013 125.426 30.6397 128.274 29.2527C131.194 27.8657 134.369 27.1721 137.801 27.1721ZM131.778 68.675C135.136 68.675 137.728 67.5071 139.553 65.1708C141.378 62.7617 142.29 59.3304 142.29 54.8772C142.29 50.6431 141.378 47.3942 139.553 45.1311C137.801 42.8681 135.245 41.7364 131.887 41.7364C128.456 41.7364 125.828 42.9044 124.003 45.2406C122.178 47.5037 121.265 50.7889 121.265 55.0962C121.265 59.4765 122.178 62.8346 124.003 65.1708C125.828 67.5071 128.42 68.675 131.778 68.675ZM195.62 27.1721C203.943 27.1721 210.075 29.1798 214.017 33.1949C218.032 37.1372 220.04 43.16 220.04 51.2635V74.1504C220.04 76.9246 219.201 79.1148 217.521 80.7208C215.915 82.2538 213.652 83.0204 210.732 83.0204C208.177 83.0204 206.06 82.2905 204.381 80.8303C202.775 79.3701 201.899 77.3989 201.752 74.9169C200.73 77.5451 199.015 79.5891 196.606 81.0493C194.196 82.5095 191.313 83.2394 187.955 83.2394C184.231 83.2394 180.873 82.5095 177.88 81.0493C174.887 79.5162 172.514 77.4356 170.762 74.8074C169.083 72.1064 168.243 69.0764 168.243 65.7184C168.243 61.849 169.229 58.7828 171.2 56.5198C173.244 54.1836 176.456 52.5047 180.837 51.4825C185.217 50.4603 191.13 49.9494 198.577 49.9494H201.533V48.6353C201.533 46.0801 200.949 44.2551 199.781 43.16C198.613 41.9921 196.642 41.4079 193.868 41.4079C190.875 41.4079 186.494 42.4301 180.727 44.4741C179.048 45.0582 177.624 45.3501 176.456 45.3501C174.631 45.3501 173.171 44.6931 172.076 43.379C170.981 42.0649 170.434 40.3495 170.434 38.2322C170.434 36.6262 170.762 35.3122 171.419 34.29C172.076 33.2678 173.135 32.3555 174.595 31.5523C177.15 30.2382 180.362 29.1798 184.231 28.3766C188.101 27.5735 191.897 27.1721 195.62 27.1721ZM192.554 70.2081C195.182 70.2081 197.336 69.2955 199.015 67.4705C200.694 65.5722 201.533 63.1631 201.533 60.243V58.929H199.781C195.109 58.929 191.787 59.367 189.816 60.243C187.845 61.0462 186.86 62.4332 186.86 64.4043C186.86 66.0835 187.37 67.4705 188.393 68.5655C189.488 69.6606 190.875 70.2081 192.554 70.2081Z" fill="white"/>
</g>
<defs>
<filter id="filter0_d" x="0" y="0" width="225.04" height="92.2394" filterUnits="userSpaceOnUse" color-interpolation-filters="sRGB">
<feFlood flood-opacity="0" result="BackgroundImageFix"/>
<feColorMatrix in="SourceAlpha" type="matrix" values="0 0 0 0 0 0 0 0 0 0 0 0 0 0 0 0 0 0 127 0" result="hardAlpha"/>
<feOffset dy="4"/>
<feGaussianBlur stdDeviation="2.5"/>
<feComposite in2="hardAlpha" operator="out"/>
<feColorMatrix type="matrix" values="0 0 0 0 0 0 0 0 0 0 0 0 0 0 0 0 0 0 0.15 0"/>
<feBlend mode="normal" in2="BackgroundImageFix" result="effect1_dropShadow"/>
<feBlend mode="normal" in="SourceGraphic" in2="effect1_dropShadow" result="shape"/>
</filter>
</defs>
</svg>
