<svg width="67" height="44" viewBox="0 0 67 44" fill="none" xmlns="http://www.w3.org/2000/svg">
<path d="M12.384 16.872C14.2187 16.872 15.584 17.4373 16.48 18.568C17.376 19.6773 17.824 21.3733 17.824 23.656V30.568C17.824 31.3787 17.568 32.0187 17.056 32.488C16.544 32.9573 15.8507 33.192 14.976 33.192C14.1013 33.192 13.408 32.9573 12.896 32.488C12.384 32.0187 12.128 31.3787 12.128 30.568V23.528C12.128 21.992 11.4667 21.224 10.144 21.224C9.29067 21.224 8.608 21.5013 8.096 22.056C7.60533 22.5893 7.36 23.3147 7.36 24.232V30.568C7.36 31.3787 7.104 32.0187 6.592 32.488C6.08 32.9573 5.38667 33.192 4.512 33.192C3.63733 33.192 2.944 32.9573 2.432 32.488C1.92 32.0187 1.664 31.3787 1.664 30.568V12.84C1.664 12.0933 1.93067 11.4853 2.464 11.016C2.99733 10.5253 3.70133 10.28 4.576 10.28C5.408 10.28 6.08 10.504 6.592 10.952C7.104 11.4 7.36 11.9973 7.36 12.744V19.144C7.936 18.3973 8.65067 17.832 9.504 17.448C10.3573 17.064 11.3173 16.872 12.384 16.872ZM23.887 33.192C23.0763 33.192 22.3937 32.9787 21.839 32.552C21.3057 32.104 21.039 31.4427 21.039 30.568V19.56C21.039 18.6853 21.3057 18.0347 21.839 17.608C22.3937 17.16 23.0763 16.936 23.887 16.936C24.6977 16.936 25.3697 17.16 25.903 17.608C26.4577 18.0347 26.735 18.6853 26.735 19.56V30.568C26.735 31.4427 26.4577 32.104 25.903 32.552C25.3697 32.9787 24.6977 33.192 23.887 33.192ZM23.887 14.696C22.927 14.696 22.159 14.4507 21.583 13.96C21.0283 13.448 20.751 12.776 20.751 11.944C20.751 11.112 21.0283 10.4507 21.583 9.96C22.159 9.46933 22.927 9.224 23.887 9.224C24.8257 9.224 25.583 9.46933 26.159 9.96C26.735 10.4507 27.023 11.112 27.023 11.944C27.023 12.776 26.735 13.448 26.159 13.96C25.6043 14.4507 24.847 14.696 23.887 14.696ZM40.471 16.872C41.8363 16.872 43.0417 17.2027 44.087 17.864C45.1323 18.5253 45.943 19.4747 46.519 20.712C47.1163 21.928 47.415 23.3467 47.415 24.968C47.415 26.5893 47.1163 28.0293 46.519 29.288C45.943 30.5467 45.1217 31.528 44.055 32.232C43.0097 32.9147 41.815 33.256 40.471 33.256C39.4257 33.256 38.4657 33.0427 37.591 32.616C36.7377 32.1893 36.087 31.6027 35.639 30.856C35.575 31.5813 35.287 32.1573 34.775 32.584C34.2843 32.9893 33.6337 33.192 32.823 33.192C31.9697 33.192 31.287 32.9573 30.775 32.488C30.2843 31.9973 30.039 31.3573 30.039 30.568V12.84C30.039 12.0933 30.3057 11.4853 30.839 11.016C31.3723 10.5253 32.0763 10.28 32.951 10.28C33.783 10.28 34.455 10.504 34.967 10.952C35.479 11.4 35.735 11.9973 35.735 12.744V19.112C36.2043 18.4293 36.855 17.8853 37.687 17.48C38.5403 17.0747 39.4683 16.872 40.471 16.872ZM38.711 29C39.6923 29 40.4497 28.6587 40.983 27.976C41.5163 27.272 41.783 26.2693 41.783 24.968C41.783 23.7307 41.5163 22.7813 40.983 22.12C40.471 21.4587 39.7243 21.128 38.743 21.128C37.7403 21.128 36.9723 21.4693 36.439 22.152C35.9057 22.8133 35.639 23.7733 35.639 25.032C35.639 26.312 35.9057 27.2933 36.439 27.976C36.9723 28.6587 37.7297 29 38.711 29ZM57.367 16.872C59.799 16.872 61.591 17.4587 62.743 18.632C63.9163 19.784 64.503 21.544 64.503 23.912V30.6C64.503 31.4107 64.2577 32.0507 63.767 32.52C63.2977 32.968 62.6363 33.192 61.783 33.192C61.0363 33.192 60.4177 32.9787 59.927 32.552C59.4577 32.1253 59.2017 31.5493 59.159 30.824C58.8603 31.592 58.359 32.1893 57.655 32.616C56.951 33.0427 56.1083 33.256 55.127 33.256C54.039 33.256 53.0577 33.0427 52.183 32.616C51.3083 32.168 50.615 31.56 50.103 30.792C49.6123 30.0027 49.367 29.1173 49.367 28.136C49.367 27.0053 49.655 26.1093 50.231 25.448C50.8283 24.7653 51.767 24.2747 53.047 23.976C54.327 23.6773 56.055 23.528 58.231 23.528H59.095V23.144C59.095 22.3973 58.9243 21.864 58.583 21.544C58.2417 21.2027 57.6657 21.032 56.855 21.032C55.9803 21.032 54.7003 21.3307 53.015 21.928C52.5243 22.0987 52.1083 22.184 51.767 22.184C51.2337 22.184 50.807 21.992 50.487 21.608C50.167 21.224 50.007 20.7227 50.007 20.104C50.007 19.6347 50.103 19.2507 50.295 18.952C50.487 18.6533 50.7963 18.3867 51.223 18.152C51.9697 17.768 52.9083 17.4587 54.039 17.224C55.1697 16.9893 56.279 16.872 57.367 16.872ZM56.471 29.448C57.239 29.448 57.8683 29.1813 58.359 28.648C58.8497 28.0933 59.095 27.3893 59.095 26.536V26.152H58.583C57.2177 26.152 56.247 26.28 55.671 26.536C55.095 26.7707 54.807 27.176 54.807 27.752C54.807 28.2427 54.9563 28.648 55.255 28.968C55.575 29.288 55.9803 29.448 56.471 29.448Z" fill="#8729B3"/>
</svg>
